<svg width="126" height="25" viewBox="0 0 126 25" fill="none" xmlns="http://www.w3.org/2000/svg">
<path d="M1.386 16V6.2H5.558C6.706 6.2 7.56 6.48933 8.12 7.068C8.54 7.50667 8.75 8.03867 8.75 8.664C8.75 9.728 8.232 10.484 7.196 10.932C8.596 11.352 9.296 12.15 9.296 13.326C9.296 14.1567 8.974 14.81 8.33 15.286C7.686 15.762 6.82267 16 5.74 16H1.386ZM2.478 15.006H5.768C6.51467 15.006 7.10267 14.852 7.532 14.544C7.96133 14.2267 8.176 13.788 8.176 13.228C8.176 12.6867 7.952 12.2713 7.504 11.982C7.06533 11.6927 6.42133 11.548 5.572 11.548H2.478V15.006ZM2.478 10.568H5.376C6.05733 10.568 6.60333 10.414 7.014 10.106C7.42467 9.798 7.63 9.35933 7.63 8.79C7.63 8.29533 7.43867 7.908 7.056 7.628C6.68267 7.33867 6.15067 7.194 5.46 7.194H2.478V10.568ZM14.5695 16.168C13.5242 16.168 12.6422 15.7993 11.9235 15.062C11.2142 14.3153 10.8595 13.424 10.8595 12.388C10.8595 11.352 11.2142 10.4653 11.9235 9.728C12.6422 8.98133 13.5242 8.608 14.5695 8.608C15.6895 8.608 16.6555 9.03733 17.4675 9.896L16.7815 10.624C16.1095 9.91467 15.3675 9.56 14.5555 9.56C13.8275 9.56 13.2115 9.83533 12.7075 10.386C12.2128 10.9273 11.9655 11.5947 11.9655 12.388C11.9655 13.172 12.2175 13.8393 12.7215 14.39C13.2348 14.9313 13.8695 15.202 14.6255 15.202C15.4002 15.202 16.1282 14.838 16.8095 14.11L17.5235 14.768C16.6835 15.7013 15.6988 16.168 14.5695 16.168ZM22.4696 16.168C21.4522 16.168 20.5936 15.818 19.8936 15.118C19.2029 14.4087 18.8576 13.4987 18.8576 12.388C18.8576 11.3333 19.1889 10.442 19.8516 9.714C20.5142 8.97667 21.3402 8.608 22.3296 8.608C23.3656 8.608 24.1869 8.972 24.7936 9.7C25.4002 10.428 25.7036 11.3427 25.7036 12.444C25.7036 12.584 25.6989 12.71 25.6896 12.822H19.9496C20.0242 13.5593 20.2996 14.1473 20.7756 14.586C21.2609 15.0153 21.8349 15.23 22.4976 15.23C23.3656 15.23 24.1262 14.8893 24.7796 14.208L25.4516 14.81C24.6396 15.7153 23.6456 16.168 22.4696 16.168ZM19.9496 11.954H24.6116C24.5462 11.254 24.3129 10.6753 23.9116 10.218C23.5196 9.75133 22.9829 9.518 22.3016 9.518C21.6856 9.518 21.1582 9.74667 20.7196 10.204C20.2809 10.6613 20.0242 11.2447 19.9496 11.954ZM31.788 16V8.762H32.866V12.934L36.828 8.762H38.158L35.134 11.898L38.242 16H36.968L34.392 12.682L32.866 14.25V16H31.788ZM41.8873 16.154C41.15 16.154 40.5153 15.9533 39.9833 15.552C39.4513 15.1507 39.1853 14.5907 39.1853 13.872C39.1853 13.116 39.4653 12.5327 40.0253 12.122C40.5853 11.7113 41.3367 11.506 42.2793 11.506C43.026 11.506 43.7633 11.6087 44.4913 11.814V11.59C44.4913 10.9553 44.3047 10.47 43.9313 10.134C43.558 9.798 43.0307 9.63 42.3493 9.63C41.64 9.63 40.9073 9.80267 40.1513 10.148L39.8293 9.266C40.7253 8.85533 41.6027 8.65 42.4613 8.65C43.488 8.65 44.2673 8.916 44.7993 9.448C45.3033 9.952 45.5553 10.6613 45.5553 11.576V16H44.4913V14.922C43.8473 15.7433 42.9793 16.154 41.8873 16.154ZM42.0973 15.286C42.7693 15.286 43.3387 15.104 43.8053 14.74C44.272 14.376 44.5053 13.9093 44.5053 13.34V12.668C43.796 12.4627 43.0913 12.36 42.3913 12.36C41.7287 12.36 41.2107 12.4953 40.8373 12.766C40.464 13.0273 40.2773 13.3867 40.2773 13.844C40.2773 14.2827 40.45 14.6327 40.7953 14.894C41.15 15.1553 41.584 15.286 42.0973 15.286ZM49.5888 16V9.714H46.9988V8.762H53.2708V9.714H50.6808V16H49.5888ZM58.0028 16.168C56.9854 16.168 56.1268 15.818 55.4268 15.118C54.7361 14.4087 54.3908 13.4987 54.3908 12.388C54.3908 11.3333 54.7221 10.442 55.3848 9.714C56.0474 8.97667 56.8734 8.608 57.8628 8.608C58.8988 8.608 59.7201 8.972 60.3268 9.7C60.9334 10.428 61.2368 11.3427 61.2368 12.444C61.2368 12.584 61.2321 12.71 61.2228 12.822H55.4828C55.5574 13.5593 55.8328 14.1473 56.3088 14.586C56.7941 15.0153 57.3681 15.23 58.0308 15.23C58.8988 15.23 59.6594 14.8893 60.3128 14.208L60.9848 14.81C60.1728 15.7153 59.1788 16.168 58.0028 16.168ZM55.4828 11.954H60.1448C60.0794 11.254 59.8461 10.6753 59.4448 10.218C59.0528 9.75133 58.5161 9.518 57.8348 9.518C57.2188 9.518 56.6914 9.74667 56.2528 10.204C55.8141 10.6613 55.5574 11.2447 55.4828 11.954ZM63.1239 16V8.762H68.0379V9.714H64.2019V16H63.1239ZM75.6104 15.062C74.8824 15.7993 73.9817 16.168 72.9084 16.168C71.8351 16.168 70.9391 15.7993 70.2204 15.062C69.5111 14.3247 69.1564 13.4333 69.1564 12.388C69.1564 11.352 69.5157 10.4653 70.2344 9.728C70.9624 8.98133 71.8631 8.608 72.9364 8.608C74.0097 8.608 74.9057 8.97667 75.6244 9.714C76.3431 10.4513 76.7024 11.3427 76.7024 12.388C76.7024 13.424 76.3384 14.3153 75.6104 15.062ZM72.9364 15.202C73.7111 15.202 74.3457 14.9313 74.8404 14.39C75.3444 13.8487 75.5964 13.1813 75.5964 12.388C75.5964 11.604 75.3351 10.9367 74.8124 10.386C74.2991 9.83533 73.6644 9.56 72.9084 9.56C72.1337 9.56 71.4991 9.83533 71.0044 10.386C70.5097 10.9273 70.2624 11.5947 70.2624 12.388C70.2624 13.172 70.5191 13.8393 71.0324 14.39C71.5457 14.9313 72.1804 15.202 72.9364 15.202ZM78.6552 18.24V8.762H79.7332V10.218C80.4612 9.14467 81.3852 8.608 82.5052 8.608C83.4292 8.608 84.2365 8.95333 84.9272 9.644C85.6178 10.3253 85.9632 11.24 85.9632 12.388C85.9632 13.5173 85.6178 14.4273 84.9272 15.118C84.2365 15.8087 83.4292 16.154 82.5052 16.154C81.3665 16.154 80.4425 15.6407 79.7332 14.614V18.24H78.6552ZM82.3092 15.188C83.0372 15.188 83.6438 14.936 84.1292 14.432C84.6145 13.9187 84.8572 13.2327 84.8572 12.374C84.8572 11.5433 84.6098 10.8713 84.1152 10.358C83.6205 9.83533 83.0185 9.574 82.3092 9.574C81.6092 9.574 80.9978 9.84 80.4752 10.372C79.9525 10.904 79.6912 11.576 79.6912 12.388C79.6912 13.2 79.9525 13.872 80.4752 14.404C80.9978 14.9267 81.6092 15.188 82.3092 15.188ZM87.952 16V8.762H89.03V14.488L93.328 8.762H94.378V16H93.3V10.274L88.988 16H87.952ZM96.7841 16V8.762H97.8621V14.488L102.16 8.762H103.21V16H102.132V10.274L97.8201 16H96.7841Z" fill="#202020"/>
<path d="M112.646 14.3536C112.842 14.5488 113.158 14.5488 113.354 14.3536L116.536 11.1716C116.731 10.9763 116.731 10.6597 116.536 10.4645C116.34 10.2692 116.024 10.2692 115.828 10.4645L113 13.2929L110.172 10.4645C109.976 10.2692 109.66 10.2692 109.464 10.4645C109.269 10.6597 109.269 10.9763 109.464 11.1716L112.646 14.3536ZM112.5 13V14H113.5V13H112.5Z" fill="#909090"/>
<line x1="125.5" y1="1.5" x2="125.5" y2="22.5" stroke="#E0E0E0" stroke-linecap="round"/>
</svg>
