<svg width="38" height="26" viewBox="0 0 38 26" fill="none" xmlns="http://www.w3.org/2000/svg">
<path d="M5.264 5.8C6.29867 5.8 7.15733 6.14667 7.84 6.84C8.53333 7.52267 8.88 8.376 8.88 9.4C8.88 10.4133 8.53333 11.2667 7.84 11.96C7.15733 12.6533 6.29867 13 5.264 13H2.688V17H1.2V5.8H5.264ZM5.264 11.608C5.88267 11.608 6.39467 11.4 6.8 10.984C7.20533 10.5573 7.408 10.0293 7.408 9.4C7.408 8.76 7.20533 8.232 6.8 7.816C6.39467 7.4 5.88267 7.192 5.264 7.192H2.688V11.608H5.264ZM16.0775 9H17.5655L14.3015 17.496C13.9602 18.4027 13.4802 19.0907 12.8615 19.56C12.2428 20.04 11.5388 20.2533 10.7495 20.2V18.904C11.7308 18.9787 12.4508 18.4453 12.9095 17.304L13.0375 17.016L9.5655 9H11.0375L13.7735 15.272L16.0775 9ZM22.1754 17.208C20.97 17.208 19.9674 16.808 19.1674 16.008C18.3674 15.1973 17.9674 14.1947 17.9674 13C17.9674 11.8053 18.3674 10.808 19.1674 10.008C19.9674 9.19733 20.97 8.792 22.1754 8.792C22.9647 8.792 23.674 8.984 24.3034 9.368C24.9327 9.74133 25.402 10.248 25.7114 10.888L24.5434 11.56C24.3407 11.1333 24.026 10.792 23.5994 10.536C23.1834 10.28 22.7087 10.152 22.1754 10.152C21.3754 10.152 20.7034 10.424 20.1594 10.968C19.626 11.512 19.3594 12.1893 19.3594 13C19.3594 13.8 19.626 14.472 20.1594 15.016C20.7034 15.56 21.3754 15.832 22.1754 15.832C22.7087 15.832 23.1887 15.7093 23.6154 15.464C24.042 15.208 24.3674 14.8667 24.5914 14.44L25.7754 15.128C25.434 15.7573 24.9434 16.264 24.3034 16.648C23.6634 17.0213 22.954 17.208 22.1754 17.208Z" fill="white"/>
<path d="M33.6367 17.3536C33.8319 17.5488 34.1485 17.5488 34.3438 17.3536L37.5258 14.1716C37.721 13.9763 37.721 13.6597 37.5258 13.4645C37.3305 13.2692 37.0139 13.2692 36.8187 13.4645L33.9902 16.2929L31.1618 13.4645C30.9665 13.2692 30.65 13.2692 30.4547 13.4645C30.2594 13.6597 30.2594 13.9763 30.4547 14.1716L33.6367 17.3536ZM33.4902 16V17H34.4902V16H33.4902Z" fill="white"/>
</svg>
